PathFileType  4	(X/Y/Z) C:\Users\antoi\Documents\MyRepositories\mobilecap\ResultsAnalysis
DataRate	CameraRate	NumFrames	NumMarkers	Units	OrigDataRate	OrigDataStartFrame	OrigNumFrames
100.0	100.0	4	51	mm	100.0	321	1281
Frame#	Time	r_knee			r_shank_antsup			r_ankle			r_calc			r_5meta			r_toe			L_knee			L_shank_antsup			L_ankle			L_calc			L_5meta			L_toe			r_sh2			r_sh3			r_sh4			L_sh2			L_sh3			r_thigh1			r_thigh2			r_thigh3			r_thigh4			r_thigh5			L_thigh1			L_thigh2			L_thigh3			L_thigh4			r.ASIS			r.PSIS			L.ASIS			L.PSIS			C7			R_Shoulder			L_Shoulder			R_Sternum			L_Sternum			R_humerus			R_elbow_med			R_elbow_lat			R_forearm			R_wrist_radius			R_wrist_ulna			L_humerus			L_elbow_med			L_elbow_lat			L_forearm			L_wrist_radius			L_wrist_ulna			R_HJC			L_HJC			R_HJC_reg			L_HJC_reg			
		X1	Y1	Z1	X2	Y2	Z2	X3	Y3	Z3	X4	Y4	Z4	X5	Y5	Z5	X6	Y6	Z6	X7	Y7	Z7	X8	Y8	Z8	X9	Y9	Z9	X10	Y10	Z10	X11	Y11	Z11	X12	Y12	Z12	X13	Y13	Z13	X14	Y14	Z14	X15	Y15	Z15	X16	Y16	Z16	X17	Y17	Z17	X18	Y18	Z18	X19	Y19	Z19	X20	Y20	Z20	X21	Y21	Z21	X22	Y22	Z22	X23	Y23	Z23	X24	Y24	Z24	X25	Y25	Z25	X26	Y26	Z26	X27	Y27	Z27	X28	Y28	Z28	X29	Y29	Z29	X30	Y30	Z30	X31	Y31	Z31	X32	Y32	Z32	X33	Y33	Z33	X34	Y34	Z34	X35	Y35	Z35	X36	Y36	Z36	X37	Y37	Z37	X38	Y38	Z38	X39	Y39	Z39	X40	Y40	Z40	X41	Y41	Z41	X42	Y42	Z42	X43	Y43	Z43	X44	Y44	Z44	X45	Y45	Z45	X46	Y46	Z46	X47	Y47	Z47	X48	Y48	Z48	X49	Y49	Z49	X50	Y50	Z50	X51	Y51	Z51	

321	3.20000000	-104.46551	464.14749	-339.48740	-58.06476	408.14678	-331.96104	-251.89512	97.99738	-359.35594	-308.35770	57.89571	-412.44271	-140.02805	39.67038	-304.76635	-92.79267	65.41770	-351.41038	-97.03745	462.31296	-811.07213	-77.08162	377.63406	-833.41966	-235.87125	98.58160	-800.52868	-296.41981	57.12019	-748.77775	-123.70794	41.15905	-839.87496	-77.26343	60.48329	-788.39597	-99.58958	302.19915	-345.41914	-128.94956	430.52377	-312.14182	-171.59908	322.93406	-308.01904	-156.03817	418.67704	-833.95779	-200.79377	305.51314	-834.01601	-209.82424	733.23067	-448.94597	-134.73872	659.61760	-414.55431	-148.59633	640.26977	-349.83965	-274.92166	706.13304	-363.89720	-201.14054	625.26748	-332.99055	-261.95833	731.77160	-774.23595	-181.10109	620.99048	-813.84606	-352.31798	664.57649	-770.54296	-268.48418	553.61096	-777.26269	-242.58082	807.54019	-452.54615	-407.89213	893.46286	-536.05524	-240.18986	785.23837	-680.88031	-403.78966	892.63292	-632.63463	-149.15821	1276.77781	-588.40875	-84.40133	1223.49472	-426.30837	-78.31730	1211.60038	-736.48209	-62.25163	1156.87682	-560.14985	-59.73553	1153.96120	-596.61859	-73.68477	1031.93813	-292.86830	-107.38103	909.95239	-298.41900	-76.00205	949.14745	-244.70256	38.62596	1005.23278	-302.11000	95.88759	1059.37542	-363.61893	121.39142	1024.76087	-350.37128	-78.51367	1012.28885	-853.73703	-99.45295	880.68674	-828.20128	-79.67391	909.05390	-892.13628	42.89447	968.38362	-837.67804	107.30523	1028.15749	-779.97593	130.41052	989.94281	-782.79358	-338.62935	751.95465	-483.09563	-342.35558	748.81065	-673.70455	-330.96168	751.68029	-487.04295	-324.53604	750.38062	-638.32648	
322	3.21000000	-102.56790	462.64638	-337.87474	-56.00339	406.60433	-330.28344	-251.77232	97.85296	-359.44915	-308.32234	57.90808	-412.45046	-140.08817	39.62359	-304.62059	-92.78689	65.37100	-351.27931	-94.88333	461.50208	-812.14160	-75.34089	376.05190	-833.88222	-235.76486	98.55243	-800.54278	-296.38171	57.15456	-748.77838	-123.76208	41.10717	-840.13728	-77.21816	60.46573	-788.62510	-97.98828	300.81381	-344.54756	-126.90632	429.09433	-310.81560	-170.19111	322.11235	-306.59827	-153.81374	417.91059	-834.97820	-199.25529	305.00862	-834.68008	-213.88394	728.58936	-449.30397	-136.90199	657.24178	-414.13488	-150.26527	637.93796	-349.44536	-277.78125	701.17843	-363.56390	-202.42329	622.11547	-332.36261	-265.30879	726.23724	-774.36968	-182.28597	617.22789	-814.59508	-354.35716	657.47370	-770.99187	-268.29760	548.52152	-778.28216	-245.35175	799.99579	-452.68049	-410.17580	886.43602	-536.38409	-243.22309	776.77674	-680.63315	-405.82520	885.47653	-632.77945	-146.12750	1266.11907	-587.87890	-81.20809	1211.69157	-426.16286	-75.85315	1200.45332	-735.97479	-60.40087	1145.04204	-559.93953	-57.95651	1142.05779	-596.47440	-69.02287	1021.40355	-292.50720	-101.34392	898.97750	-297.60434	-70.30009	938.63931	-244.07012	43.00589	996.73926	-301.73407	99.03720	1051.94131	-363.48399	125.14734	1017.60940	-350.47017	-74.91046	1002.17745	-853.79566	-94.90186	870.30160	-828.46597	-74.90749	899.15583	-892.85801	46.41295	960.60148	-838.15070	109.53908	1021.65398	-780.36420	133.30040	983.81356	-783.11010	-341.74089	744.83704	-482.85262	-345.51380	741.03493	-673.44834	-334.16372	744.15697	-487.26731	-327.34570	742.65306	-638.34146	
323	3.22000000	-100.84169	461.13046	-336.38098	-54.11020	405.12313	-328.49589	-251.67750	97.73469	-359.51244	-308.26587	57.94107	-412.45844	-140.08940	39.55548	-304.47444	-92.80022	65.28696	-351.16224	-92.76121	460.36815	-813.16914	-73.35023	374.74256	-834.84869	-235.64605	98.54334	-800.53769	-296.29514	57.18702	-748.75653	-123.79401	41.07337	-840.38650	-77.16913	60.39411	-788.77018	-96.50849	299.45373	-343.59235	-124.99726	427.85652	-309.17914	-168.96186	321.15903	-305.23417	-151.60333	417.05141	-835.65343	-197.89749	304.37720	-835.12954	-217.66168	723.94363	-449.28880	-138.97238	654.75553	-413.37360	-151.95894	635.38688	-348.81098	-280.55425	696.01653	-363.16900	-203.78449	618.64805	-331.52458	-268.50496	720.74914	-774.77967	-183.46039	613.25903	-815.28540	-356.27176	650.22813	-771.12409	-267.98125	543.15090	-778.89568	-248.08363	792.14692	-452.77398	-412.23023	879.33495	-536.65170	-246.10591	768.30896	-680.68982	-407.83104	878.27105	-632.81615	-143.19783	1255.56751	-587.44350	-78.22498	1199.96168	-425.95092	-73.51550	1189.49984	-735.46151	-58.58878	1133.34694	-559.63950	-56.32041	1130.27670	-596.37207	-64.56567	1010.76949	-292.21450	-95.49677	888.07767	-296.85336	-64.89309	928.04660	-243.57132	47.31206	988.01385	-301.52250	102.09907	1044.24718	-363.25536	128.82820	1010.33398	-350.50521	-71.52022	992.23309	-854.02297	-90.93311	860.16266	-828.55434	-70.29084	888.94963	-892.74362	49.68860	952.76559	-838.49198	111.58715	1015.10033	-780.65762	136.02216	977.59743	-783.15562	-344.76033	737.48881	-482.76398	-348.61183	733.30314	-673.35054	-337.23805	736.53562	-487.35494	-330.32621	734.86393	-638.44014	
324	3.23000000	-99.23917	459.78721	-334.89814	-52.34519	403.73252	-326.76455	-251.60804	97.69916	-359.45690	-308.19843	57.95371	-412.43958	-140.03850	39.45674	-304.32147	-92.82393	65.20249	-351.03086	-90.62827	458.76271	-814.08026	-71.23588	373.46232	-835.81653	-235.46263	98.55420	-800.53826	-296.20144	57.23869	-748.68940	-123.79925	41.02073	-840.47190	-77.11927	60.26486	-788.80827	-95.21473	298.30947	-342.39417	-123.16588	426.76713	-307.71397	-167.43904	319.70739	-304.52146	-149.34512	416.07346	-836.03399	-196.43760	303.90980	-835.57027	-220.97717	719.13007	-449.15635	-140.94778	652.03395	-412.65006	-153.60781	632.58278	-348.01245	-283.24806	690.63136	-362.73217	-205.13860	614.96194	-330.64479	-271.58056	715.10559	-775.20878	-184.58801	609.20201	-815.89074	-358.00905	642.81882	-771.10115	-267.80383	537.11098	-778.45469	-250.80859	784.00301	-452.78093	-414.09167	872.24063	-536.85469	-248.73738	760.08448	-681.25953	-410.25761	871.23474	-633.22543	-140.33207	1245.05353	-586.92659	-75.34159	1188.34969	-425.94352	-71.31763	1178.67719	-734.90739	-56.84964	1121.89930	-559.26160	-54.76039	1118.78386	-596.15224	-60.36175	1000.08808	-291.85114	-89.83328	877.15202	-296.31004	-59.79844	917.49225	-243.10494	51.41143	979.17244	-301.42389	105.06751	1036.43995	-363.06621	132.37138	1003.02531	-350.41682	-68.33251	982.35849	-854.12311	-86.98535	850.40033	-829.04619	-65.96810	878.49906	-891.94798	52.67302	944.95212	-838.73554	113.44043	1008.48132	-780.94476	138.51510	971.30329	-783.07893	-347.76715	729.96232	-483.06957	-351.63572	725.81693	-673.65665	-339.90858	728.86057	-486.97466	-333.87777	727.27826	-638.46761	
